<svg width="728" height="125" viewBox="0 0 728 125" xmlns="http://www.w3.org/2000/svg"><title>lace_logotype</title><desc>Created with Sketch.</desc><path d="M.825 107.364c-1.691-6.784-.333-13.254.124-15.075l23.052-92.289h5.992l-22.141 89h53.019l14.086-56.608c.457-1.822 2.342-8.291 7.435-15.075 8.105-10.797 20.012-17.317 32.667-17.317h146.833c15.543 0 29.245 11.565 24.024 32.392l-23.148 92.608h-5.965l22.118-89h-199.139l-13.996 56.289c-5.221 20.827-24.558 32.348-40.102 32.348-13.367 0-22.168-6.476-24.859-17.273zm248.625 17.636h-5.878l11.229-45h-177.973l9.087-36h151.74099999999999c1.82 0 8.225.618 14.157 4.01 9.446 5.398 13.041 15.752 9.868 28.407l-12.231 48.583zm272.102-125h5.851l-21.557 89h199.563l-8.992 36h-173.425c-1.821 0-8.224-.548-14.159-3.94-9.443-5.399-13.04-15.752-9.867-28.409l22.586-92.651zm205.836 0l-8.952 36h-186.366l-1.946 8h186.3l-9.003 37h-160.13c-1.82 0-8.223-.717-14.157-4.109-9.444-5.398-13.04-15.752-9.867-28.409l11.677-48.482h192.444zm-245.517 0c1.82 0 8.225.452 14.158 3.844 9.445 5.398 13.04 15.752 9.867 28.408l-12.108 48.748h-5.846l11.058-45h-200l-13.091 53h206.346l-9.027 36h-180.283c-12.656 0-21.458-6.564-24.149-17.361-1.691-6.785-.333-13.255.123-15.075l15.107-60.252c5.221-20.827 24.595-32.312 40.139-32.312h147.706z" fill="#000913"/></svg>